<?xml version="1.0" encoding="UTF-8"?>
<svg width="40px" height="160px" viewBox="0 0 40 160" version="1.1" xmlns="http://www.w3.org/2000/svg" xmlns:xlink="http://www.w3.org/1999/xlink">
    <!-- Generator: Sketch 55.2 (78181) - https://sketchapp.com -->
    <title>logo</title>
    <desc>Created with Sketch.</desc>
    <defs>
        <polygon id="path-1" points="0 161 40 161 40 0 0 0"></polygon>
    </defs>
    <g id="Desktop" stroke="none" stroke-width="1" fill="none" fill-rule="evenodd">
        <g id="Home_D_04" transform="translate(-1363.000000, -81.000000)">
            <g id="Nav" transform="translate(1363.000000, 33.000000)">
                <g id="logo">
                    <g transform="translate(0.000000, 48.000000)">
                        <path d="M18,113.496902 L18,111.258559 L5.50243626,107.733617 C4.26775155,107.373199 2.75121813,106.987219 2.75121813,106.987219 C2.75121813,106.987219 4.19111595,106.574826 5.50243626,106.240821 L18,102.997909 L18,100.991325 L0,96 L0,98.2383424 L11.7507924,101.248644 C12.7538673,101.505964 14.7591655,101.995043 14.7591655,101.995043 C14.7591655,101.995043 13.0629642,102.406584 11.7507924,102.741441 L0,105.752595 L0,108.247405 L11.7507924,111.489466 C12.7538673,111.772347 14.7591655,112.235864 14.7591655,112.235864 C14.7591655,112.235864 13.0885094,112.69938 11.7507924,113.007823 L0,115.735244 L0,118 L18,113.496902 Z" id="Fill-1" fill="#000000"></path>
                        <path d="M15.9888082,86 C15.9888082,90.172417 12.9212413,92.8888169 9.00041622,92.8888169 C5.07792628,92.8888169 2.01119179,90.172417 2.01119179,86 C2.01119179,81.8267505 5.07792628,79.1111831 9.00041622,79.1111831 C12.9212413,79.1111831 15.9888082,81.8267505 15.9888082,86 M18,86 C18,80.8211081 14.1282893,77 9.00041622,77 C3.87087823,77 0,80.8211081 0,86 C0,91.1788919 3.87087823,95 9.00041622,95 C14.1282893,95 18,91.1788919 18,86" id="Fill-3" fill="#000000"></path>
                        <polygon id="Fill-5" fill="#000000" points="0 58 0 56.0281 8.4852642 56.0281 8.4852642 55.8803708 0 47.3765522 0 44.5174605 8.81990633 53.3910103 18 44 18 46.8093045 9.28227447 55.8803708 9.28227447 56.0281 18 56.0281 18 58"></polygon>
                        <mask id="mask-2" fill="white">
                            <use xlink:href="#path-1"></use>
                        </mask>
                        <g id="Clip-8"></g>
                        <polygon id="Fill-7" fill="#000000" mask="url(#mask-2)" points="0 41 18 41 18 39 0 39"></polygon>
                        <polygon id="Fill-9" fill="#000000" mask="url(#mask-2)" points="0 22.9800538 14.8375041 22.9800538 14.8375041 23.1834379 0 33.3862618 0 36 18 36 18 34.0712125 2.95728275 34.0712125 2.95728275 33.8174025 18 23.3355558 18 21 0 21"></polygon>
                        <path d="M14.1532627,1.78467101 C16.6173056,3.02640468 18,5.81902089 18,8.81887816 C18,14.0692707 14.3788558,18 9.00041622,18 C3.92248994,18 0,14.0170322 0,8.74094867 C0,4.2158999 2.71544189,1.03534897 6.30994774,0.259479519 L6.30994774,2.43122889 C3.79595801,3.23278938 2.01119179,5.48332461 2.01119179,8.74094867 C2.01119179,12.9825396 5.12870555,15.8273943 9.00041622,15.8273943 C13.1726402,15.8273943 15.9888082,13.0604691 15.9888082,8.71525762 C15.9888082,6.02626195 14.9074596,3.25848042 11.6384405,2.01674675 L11.4378208,2.01674675 L11.4378208,7.29368666 L9.52735513,7.29368666 L9.52735513,0 L17.7985478,0 L17.7985478,1.78467101 L14.1532627,1.78467101 Z" id="Fill-10" fill="#000000" mask="url(#mask-2)"></path>
                        <path d="M1.95496689,72.0113967 L1.95496689,68.083576 C1.95496689,65.3500696 3.08571429,64.1318855 5.19479659,64.1318855 C7.30302744,64.1318855 8.48571429,65.3500696 8.48571429,68.083576 L8.48571429,72.0113967 L1.95496689,72.0113967 Z M18,61 L10.343614,67.1254907 C10.0336802,63.8372167 7.98760643,62.0436875 5.19479659,62.0436875 C2.16017029,62.0436875 0,64.0075978 0,67.8596936 L0,74 L18,74 L18,72.0113967 L10.3887417,72.0113967 L10.3887417,69.6688616 L18,63.5845258 L18,61 Z" id="Fill-11" fill="#000000" mask="url(#mask-2)"></path>
                        <path d="M24.0111918,86.0004162 C24.0111918,81.8273598 27.0787587,79.1119179 31.0004162,79.1119179 C34.9220737,79.1119179 37.9888082,81.8273598 37.9888082,86.0004162 C37.9888082,90.1726402 34.9220737,92.8889146 31.0004162,92.8889146 C27.0787587,92.8889146 24.0111918,90.1726402 24.0111918,86.0004162 M22,86.0004162 C22,91.1790686 25.8717107,95 31.0004162,95 C36.1291218,95 40,91.1790686 40,86.0004162 C40,80.8217639 36.1291218,77 31.0004162,77 C25.8717107,77 22,80.8217639 22,86.0004162" id="Fill-12" fill="#000000" mask="url(#mask-2)"></path>
                        <path d="M38.0450331,100.988603 L38.0450331,104.916424 C38.0450331,107.64993 36.9142857,108.868114 34.8052034,108.868114 C32.6969726,108.868114 31.5142857,107.64993 31.5142857,104.916424 L31.5142857,100.988603 L38.0450331,100.988603 Z M22,112 L29.6572375,105.874509 C29.9663198,109.162783 32.0123936,110.956313 34.8052034,110.956313 C37.8398297,110.956313 40,108.992402 40,105.140306 L40,99 L22,99 L22,100.988603 L29.6112583,100.988603 L29.6112583,103.331138 L22,109.415474 L22,112 Z" id="Fill-13" fill="#000000" mask="url(#mask-2)"></path>
                        <path d="M38.0450331,148.988603 L38.0450331,152.915601 C38.0450331,155.64993 36.9142857,156.868114 34.8052034,156.868114 C32.6969726,156.868114 31.5142857,155.64993 31.5142857,152.915601 L31.5142857,148.988603 L38.0450331,148.988603 Z M22,160 L29.6572375,153.874509 C29.9663198,157.162783 32.0123936,158.956313 34.8052034,158.956313 C37.8398297,158.956313 40,156.992402 40,153.139483 L40,147 L22,147 L22,148.988603 L29.6112583,148.988603 L29.6112583,151.331138 L22,157.414651 L22,160 Z" id="Fill-14" fill="#000000" mask="url(#mask-2)"></path>
                        <path d="M23.9542079,116.061903 L38.0457921,116.061903 L38.0457921,120.082442 C38.0457921,124.154188 35.4486967,126.834832 31.1281518,126.834832 C26.8084583,126.834832 23.9542079,124.154188 23.9542079,120.082442 L23.9542079,116.061903 Z M22,114 L22,119.824704 C22,125.44373 25.5490799,129 31.1281518,129 C36.7080751,129 40,125.44373 40,119.824704 L40,114 L22,114 Z" id="Fill-15" fill="#000000" mask="url(#mask-2)"></path>
                        <polygon id="Fill-16" fill="#000000" mask="url(#mask-2)" points="40 132 40 143.750223 38.0449406 143.750223 38.0449406 133.991619 32.3117461 133.991619 32.3117461 141.83362 30.3566867 141.83362 30.3566867 133.991619 23.9542079 133.991619 23.9542079 144 22 144 22 132"></polygon>
                    </g>
                </g>
            </g>
        </g>
    </g>
</svg>