<?xml version="1.0" encoding="UTF-8"?>
<svg width="18px" height="83px" viewBox="0 0 18 83" version="1.1" xmlns="http://www.w3.org/2000/svg" xmlns:xlink="http://www.w3.org/1999/xlink">
    <!-- Generator: Sketch 55.2 (78181) - https://sketchapp.com -->
    <title>order</title>
    <desc>Created with Sketch.</desc>
    <g id="Desktop" stroke="none" stroke-width="1" fill="none" fill-rule="evenodd">
        <g id="Home_D_00" transform="translate(-1385.000000, -648.000000)" fill="#000000">
            <g id="Nav" transform="translate(1363.000000, 33.000000)">
                <g id="order">
                    <g transform="translate(22.000000, 615.000000)">
                        <path d="M2.01119179,9.00041622 C2.01119179,4.82735976 5.07875873,2.11191787 9.00041622,2.11191787 C12.9220737,2.11191787 15.9888082,4.82735976 15.9888082,9.00041622 C15.9888082,13.1726402 12.9220737,15.8889146 9.00041622,15.8889146 C5.07875873,15.8889146 2.01119179,13.1726402 2.01119179,9.00041622 M0,9.00041622 C0,14.1790686 3.87171068,18 9.00041622,18 C14.1291218,18 18,14.1790686 18,9.00041622 C18,3.82176386 14.1291218,0 9.00041622,0 C3.87171068,0 0,3.82176386 0,9.00041622" id="Fill-12"></path>
                        <path d="M16.0450331,23.9886033 L16.0450331,27.916424 C16.0450331,30.6499304 14.9142857,31.8681145 12.8052034,31.8681145 C10.6969726,31.8681145 9.51428571,30.6499304 9.51428571,27.916424 L9.51428571,23.9886033 L16.0450331,23.9886033 Z M0,35 L7.65723746,28.8745093 C7.96631977,32.1627833 10.0123936,33.9563125 12.8052034,33.9563125 C15.8398297,33.9563125 18,31.9924022 18,28.1403064 L18,22 L0,22 L0,23.9886033 L7.61125828,23.9886033 L7.61125828,26.3311384 L0,32.4154742 L0,35 Z" id="Fill-13"></path>
                        <path d="M16.0450331,71.9886033 L16.0450331,75.9156009 C16.0450331,78.6499304 14.9142857,79.8681145 12.8052034,79.8681145 C10.6969726,79.8681145 9.51428571,78.6499304 9.51428571,75.9156009 L9.51428571,71.9886033 L16.0450331,71.9886033 Z M0,83 L7.65723746,76.8745093 C7.96631977,80.1627833 10.0123936,81.9563125 12.8052034,81.9563125 C15.8398297,81.9563125 18,79.9924022 18,76.1394833 L18,70 L0,70 L0,71.9886033 L7.61125828,71.9886033 L7.61125828,74.3311384 L0,80.4146511 L0,83 Z" id="Fill-14"></path>
                        <path d="M1.95420786,39.0619026 L16.0457921,39.0619026 L16.0457921,43.082442 C16.0457921,47.1541875 13.4486967,49.8348316 9.12815176,49.8348316 C4.8084583,49.8348316 1.95420786,47.1541875 1.95420786,43.082442 L1.95420786,39.0619026 Z M0,37 L0,42.8247041 C0,48.4437301 3.5490799,52 9.12815176,52 C14.7080751,52 18,48.4437301 18,42.8247041 L18,37 L0,37 Z" id="Fill-15"></path>
                        <polygon id="Fill-16" points="18 55 18 66.7502233 16.0449406 66.7502233 16.0449406 56.9916192 10.3117461 56.9916192 10.3117461 64.8336196 8.35668669 64.8336196 8.35668669 56.9916192 1.95420786 56.9916192 1.95420786 67 0 67 0 55"></polygon>
                    </g>
                </g>
            </g>
        </g>
    </g>
</svg>