<?xml version="1.0" encoding="UTF-8"?>
<svg width="18px" height="118px" viewBox="0 0 18 118" version="1.1" xmlns="http://www.w3.org/2000/svg" xmlns:xlink="http://www.w3.org/1999/xlink">
    <!-- Generator: Sketch 55.2 (78181) - https://sketchapp.com -->
    <title>working</title>
    <desc>Created with Sketch.</desc>
    <defs>
        <polygon id="path-1" points="0 118 40 118 40 0 0 0"></polygon>
    </defs>
    <g id="Desktop" stroke="none" stroke-width="1" fill="none" fill-rule="evenodd">
        <g id="Home_D_00" transform="translate(-1363.000000, -81.000000)">
            <g id="Nav" transform="translate(1363.000000, 33.000000)">
                <g id="working">
                    <g transform="translate(0.000000, 48.000000)">
                        <path d="M18,113.496902 L18,111.258559 L5.50243626,107.733617 C4.26775155,107.373199 2.75121813,106.987219 2.75121813,106.987219 C2.75121813,106.987219 4.19111595,106.574826 5.50243626,106.240821 L18,102.997909 L18,100.991325 L0,96 L0,98.2383424 L11.7507924,101.248644 C12.7538673,101.505964 14.7591655,101.995043 14.7591655,101.995043 C14.7591655,101.995043 13.0629642,102.406584 11.7507924,102.741441 L0,105.752595 L0,108.247405 L11.7507924,111.489466 C12.7538673,111.772347 14.7591655,112.235864 14.7591655,112.235864 C14.7591655,112.235864 13.0885094,112.69938 11.7507924,113.007823 L0,115.735244 L0,118 L18,113.496902 Z" id="Fill-1" fill="#000000"></path>
                        <path d="M15.9888082,86 C15.9888082,90.172417 12.9212413,92.8888169 9.00041622,92.8888169 C5.07792628,92.8888169 2.01119179,90.172417 2.01119179,86 C2.01119179,81.8267505 5.07792628,79.1111831 9.00041622,79.1111831 C12.9212413,79.1111831 15.9888082,81.8267505 15.9888082,86 M18,86 C18,80.8211081 14.1282893,77 9.00041622,77 C3.87087823,77 0,80.8211081 0,86 C0,91.1788919 3.87087823,95 9.00041622,95 C14.1282893,95 18,91.1788919 18,86" id="Fill-3" fill="#000000"></path>
                        <polygon id="Fill-5" fill="#000000" points="0 58 0 56.0281 8.4852642 56.0281 8.4852642 55.8803708 0 47.3765522 0 44.5174605 8.81990633 53.3910103 18 44 18 46.8093045 9.28227447 55.8803708 9.28227447 56.0281 18 56.0281 18 58"></polygon>
                        <mask id="mask-2" fill="white">
                            <use xlink:href="#path-1"></use>
                        </mask>
                        <g id="Clip-8"></g>
                        <polygon id="Fill-7" fill="#000000" mask="url(#mask-2)" points="0 41 18 41 18 39 0 39"></polygon>
                        <polygon id="Fill-9" fill="#000000" mask="url(#mask-2)" points="0 22.9800538 14.8375041 22.9800538 14.8375041 23.1834379 0 33.3862618 0 36 18 36 18 34.0712125 2.95728275 34.0712125 2.95728275 33.8174025 18 23.3355558 18 21 0 21"></polygon>
                        <path d="M14.1532627,1.78467101 C16.6173056,3.02640468 18,5.81902089 18,8.81887816 C18,14.0692707 14.3788558,18 9.00041622,18 C3.92248994,18 0,14.0170322 0,8.74094867 C0,4.2158999 2.71544189,1.03534897 6.30994774,0.259479519 L6.30994774,2.43122889 C3.79595801,3.23278938 2.01119179,5.48332461 2.01119179,8.74094867 C2.01119179,12.9825396 5.12870555,15.8273943 9.00041622,15.8273943 C13.1726402,15.8273943 15.9888082,13.0604691 15.9888082,8.71525762 C15.9888082,6.02626195 14.9074596,3.25848042 11.6384405,2.01674675 L11.4378208,2.01674675 L11.4378208,7.29368666 L9.52735513,7.29368666 L9.52735513,0 L17.7985478,0 L17.7985478,1.78467101 L14.1532627,1.78467101 Z" id="Fill-10" fill="#000000" mask="url(#mask-2)"></path>
                        <path d="M1.95496689,72.0113967 L1.95496689,68.083576 C1.95496689,65.3500696 3.08571429,64.1318855 5.19479659,64.1318855 C7.30302744,64.1318855 8.48571429,65.3500696 8.48571429,68.083576 L8.48571429,72.0113967 L1.95496689,72.0113967 Z M18,61 L10.343614,67.1254907 C10.0336802,63.8372167 7.98760643,62.0436875 5.19479659,62.0436875 C2.16017029,62.0436875 0,64.0075978 0,67.8596936 L0,74 L18,74 L18,72.0113967 L10.3887417,72.0113967 L10.3887417,69.6688616 L18,63.5845258 L18,61 Z" id="Fill-11" fill="#000000" mask="url(#mask-2)"></path>
                    </g>
                </g>
            </g>
        </g>
    </g>
</svg>